<svg xmlns="http://www.w3.org/2000/svg" width="1536" height="1024" viewBox="0 0 1536 1024">
  <defs>
    <filter id="softShadow" x="-15%" y="-15%" width="130%" height="130%">
      <feDropShadow dx="0" dy="3" stdDeviation="4" flood-color="#000000" flood-opacity="0.10"/>
    </filter>
    <linearGradient id="devBg" x1="0" x2="1" y1="0" y2="1">
      <stop offset="0%" stop-color="#f4f9ff"/>
      <stop offset="100%" stop-color="#ffffff"/>
    </linearGradient>
    <linearGradient id="vpsBg" x1="0" x2="1" y1="0" y2="1">
      <stop offset="0%" stop-color="#f4fbf2"/>
      <stop offset="100%" stop-color="#ffffff"/>
    </linearGradient>
    <linearGradient id="browserBg" x1="0" x2="1" y1="0" y2="1">
      <stop offset="0%" stop-color="#fff9ec"/>
      <stop offset="100%" stop-color="#ffffff"/>
    </linearGradient>
    <marker id="arrow" markerHeight="12" markerWidth="12" orient="auto" refX="10" refY="6">
      <path d="M0,0 L12,6 L0,12 Z" fill="#111111"/>
    </marker>
  </defs>

  <rect width="1536" height="1024" fill="#ffffff"/>

  <g font-family="Arial, Helvetica, sans-serif" fill="#111111">
    <rect x="58" y="43" width="340" height="707" rx="9" fill="url(#devBg)" stroke="#4d86c6" stroke-width="1.8"/>
    <text x="228" y="93" font-size="30" font-weight="700" text-anchor="middle">Development</text>

    <rect x="539" y="43" width="432" height="707" rx="9" fill="url(#vpsBg)" stroke="#6fa465" stroke-width="1.8"/>
    <text x="755" y="93" font-size="30" font-weight="700" text-anchor="middle">VPS</text>

    <rect x="1210" y="43" width="260" height="707" rx="9" fill="url(#browserBg)" stroke="#e19a24" stroke-width="1.8"/>
    <text x="1340" y="93" font-size="30" font-weight="700" text-anchor="middle">Browser</text>

    <g filter="url(#softShadow)">
      <rect x="109" y="128" width="238" height="140" rx="7" fill="#ffffff" stroke="#8f969e" stroke-width="1.6"/>
      <path d="M204 146 H236 L254 164 V214 H204 Z" fill="#f8fbff" stroke="#8b949e" stroke-width="3"/>
      <path d="M236 146 V164 H254" fill="none" stroke="#8b949e" stroke-width="3"/>
      <text x="229" y="197" fill="#2580d5" font-size="31" font-weight="700" text-anchor="middle">&lt;/&gt;</text>
      <text x="228" y="246" font-size="24" text-anchor="middle">Source code</text>
    </g>

    <g filter="url(#softShadow)">
      <rect x="109" y="332" width="238" height="139" rx="7" fill="#ffffff" stroke="#8f969e" stroke-width="1.6"/>
      <path d="M180 379 C176 402 194 415 220 415 H247 C266 415 277 404 279 391 C269 395 259 393 252 386 C245 395 231 400 214 400 H181 Z" fill="#1d8bd7"/>
      <rect x="191" y="366" width="10" height="10" fill="#1d8bd7"/>
      <rect x="204" y="356" width="10" height="20" fill="#1d8bd7"/>
      <rect x="217" y="356" width="10" height="20" fill="#1d8bd7"/>
      <rect x="230" y="344" width="10" height="32" fill="#1d8bd7"/>
      <rect x="243" y="366" width="10" height="10" fill="#1d8bd7"/>
      <text x="228" y="449" font-size="24" text-anchor="middle">Docker build</text>
    </g>

    <g filter="url(#softShadow)">
      <rect x="109" y="539" width="238" height="132" rx="7" fill="#ffffff" stroke="#8f969e" stroke-width="1.6"/>
      <path d="M204 558 H238 L254 574 V626 H204 Z" fill="#2f91dd"/>
      <path d="M238 558 V574 H254" fill="#5aa8ea"/>
      <rect x="214" y="584" width="27" height="5" fill="#ffffff"/>
      <rect x="214" y="597" width="27" height="5" fill="#ffffff"/>
      <rect x="214" y="610" width="27" height="5" fill="#ffffff"/>
      <text x="228" y="650" font-size="24" text-anchor="middle">Docker image</text>
    </g>

    <g filter="url(#softShadow)">
      <rect x="613" y="146" width="283" height="123" rx="7" fill="#ffffff" stroke="#8f969e" stroke-width="1.6"/>
      <path d="M672 172 L701 189 V224 L672 241 L643 224 V189 Z" fill="#15a135"/>
      <text x="672" y="219" fill="#ffffff" font-size="54" font-weight="700" text-anchor="middle">N</text>
      <text x="720" y="199" font-size="22" font-weight="700">Nginx</text>
      <text x="720" y="230" font-size="22" font-weight="700">reverse proxy</text>
    </g>

    <rect x="589" y="440" width="329" height="260" rx="13" fill="#ffffff" fill-opacity="0.35" stroke="#2384d7" stroke-width="2" stroke-dasharray="9 7"/>
    <path d="M606 476 C603 494 617 505 638 505 H659 C674 505 682 496 684 486 C676 489 668 487 663 482 C657 489 646 493 633 493 H607 Z" fill="#1d8bd7"/>
    <rect x="615" y="465" width="8" height="8" fill="#1d8bd7"/>
    <rect x="626" y="457" width="8" height="16" fill="#1d8bd7"/>
    <rect x="637" y="457" width="8" height="16" fill="#1d8bd7"/>
    <rect x="648" y="447" width="8" height="26" fill="#1d8bd7"/>
    <text x="686" y="503" font-size="24" font-weight="700">Docker</text>

    <g filter="url(#softShadow)">
      <rect x="618" y="548" width="270" height="123" rx="7" fill="#ffffff" stroke="#8f969e" stroke-width="1.6"/>
      <path d="M672 579 L699 595 V626 L672 642 L645 626 V595 Z" fill="none" stroke="#2e8fe4" stroke-width="4"/>
      <path d="M672 579 V610 L699 595 M672 610 L645 595 M672 610 V642" fill="none" stroke="#2e8fe4" stroke-width="4"/>
      <text x="716" y="618" font-size="22" font-weight="700">TMS container</text>
    </g>

    <g filter="url(#softShadow)">
      <rect x="578" y="822" width="350" height="120" rx="7" fill="#ffffff" stroke="#8f969e" stroke-width="1.6"/>
      <ellipse cx="626" cy="861" rx="24" ry="12" fill="#257fd3"/>
      <path d="M602 861 V902 C602 909 650 909 650 902 V861" fill="#257fd3"/>
      <ellipse cx="626" cy="902" rx="24" ry="12" fill="#1b69bd"/>
      <path d="M633 895 C637 878 657 876 666 890 C681 890 691 900 691 914 H638 C624 912 622 898 633 895 Z" fill="#3e94e6"/>
      <text x="650" y="922" fill="#ffffff" font-size="24" font-weight="700" text-anchor="middle">A</text>
      <text x="684" y="892" font-size="20" font-weight="700">Azure Database Server</text>
    </g>

    <g>
      <rect x="1263" y="306" width="153" height="109" rx="5" fill="#333940"/>
      <rect x="1271" y="315" width="137" height="78" rx="3" fill="#ffffff" stroke="#222831" stroke-width="2"/>
      <circle cx="1340" cy="405" r="4" fill="#ffffff"/>
      <rect x="1329" y="416" width="22" height="20" fill="#333940"/>
      <rect x="1308" y="433" width="64" height="7" rx="2" fill="#333940"/>
      <circle cx="1340" cy="354" r="28" fill="none" stroke="#555555" stroke-width="4"/>
      <path d="M1314 354 H1366 M1340 326 C1326 343 1326 365 1340 382 M1340 326 C1354 343 1354 365 1340 382 M1319 337 C1332 344 1348 344 1361 337 M1319 371 C1332 364 1348 364 1361 371" fill="none" stroke="#555555" stroke-width="4"/>
      <text x="1340" y="480" font-size="26" font-weight="700" text-anchor="middle">saas.owlab.uk</text>
    </g>

    <line x1="228" y1="268" x2="228" y2="325" stroke="#111111" stroke-width="2.2" marker-end="url(#arrow)"/>
    <line x1="228" y1="471" x2="228" y2="532" stroke="#111111" stroke-width="2.2" marker-end="url(#arrow)"/>
    <line x1="347" y1="604" x2="584" y2="604" stroke="#111111" stroke-width="2.2" marker-end="url(#arrow)"/>
    <text x="407" y="590" font-size="22">push image</text>
    <line x1="752" y1="269" x2="752" y2="433" stroke="#111111" stroke-width="2.2" marker-end="url(#arrow)"/>
    <text x="774" y="367" font-size="22">port 4000</text>
    <line x1="1174" y1="207" x2="902" y2="207" stroke="#111111" stroke-width="2.2" marker-end="url(#arrow)"/>
    <text x="1050" y="195" font-size="22">port 443</text>
    <text x="1050" y="225" font-size="22">(HTTPS)</text>
    <line x1="752" y1="671" x2="752" y2="815" stroke="#111111" stroke-width="2.2" marker-end="url(#arrow)"/>
  </g>
</svg>
